<svg width="174" height="45" viewBox="0 0 174 45" fill="none" xmlns="http://www.w3.org/2000/svg">
<path d="M66.514 29C66.3007 29 66.114 28.9267 65.954 28.78C65.8073 28.62 65.734 28.4333 65.734 28.22V14.16C65.734 13.9333 65.8073 13.7467 65.954 13.6C66.1007 13.4533 66.2873 13.38 66.514 13.38H75.894C76.1207 13.38 76.3073 13.4533 76.454 13.6C76.6007 13.7333 76.674 13.9133 76.674 14.14C76.674 14.34 76.6007 14.5133 76.454 14.66C76.3073 14.8067 76.1207 14.88 75.894 14.88H67.294V20.4H73.554C73.7807 20.4 73.9673 20.4733 74.114 20.62C74.2607 20.7667 74.334 20.9467 74.334 21.16C74.334 21.3733 74.2607 21.5533 74.114 21.7C73.9673 21.8467 73.7807 21.92 73.554 21.92H67.294V28.22C67.294 28.4333 67.2207 28.62 67.074 28.78C66.9273 28.9267 66.7407 29 66.514 29ZM81.334 29C80.8007 29 80.3207 28.8533 79.894 28.56C79.4807 28.2667 79.154 27.86 78.914 27.34C78.6873 26.82 78.574 26.22 78.574 25.54V14.14C78.574 13.9133 78.6407 13.7333 78.774 13.6C78.9207 13.4533 79.1073 13.38 79.334 13.38C79.5607 13.38 79.7407 13.4533 79.874 13.6C80.0207 13.7333 80.094 13.9133 80.094 14.14V25.54C80.094 26.1133 80.2073 26.58 80.434 26.94C80.674 27.3 80.974 27.48 81.334 27.48H81.834C82.034 27.48 82.194 27.5533 82.314 27.7C82.434 27.8333 82.494 28.0133 82.494 28.24C82.494 28.4667 82.4073 28.6533 82.234 28.8C82.074 28.9333 81.8607 29 81.594 29H81.334ZM88.6931 29.1C87.6264 29.1 86.6731 28.86 85.8331 28.38C84.9931 27.9 84.3331 27.24 83.8531 26.4C83.3731 25.56 83.1331 24.6067 83.1331 23.54C83.1331 22.46 83.3731 21.5 83.8531 20.66C84.3331 19.82 84.9931 19.16 85.8331 18.68C86.6731 18.2 87.6264 17.96 88.6931 17.96C89.7597 17.96 90.7064 18.2 91.5331 18.68C92.3731 19.16 93.0331 19.82 93.5131 20.66C93.9931 21.5 94.2397 22.46 94.2531 23.54C94.2531 24.6067 94.0064 25.56 93.5131 26.4C93.0331 27.24 92.3731 27.9 91.5331 28.38C90.7064 28.86 89.7597 29.1 88.6931 29.1ZM88.6931 27.7C89.4664 27.7 90.1597 27.52 90.7731 27.16C91.3864 26.8 91.8664 26.3067 92.2131 25.68C92.5597 25.0533 92.7331 24.34 92.7331 23.54C92.7331 22.74 92.5597 22.0267 92.2131 21.4C91.8664 20.76 91.3864 20.26 90.7731 19.9C90.1597 19.54 89.4664 19.36 88.6931 19.36C87.9197 19.36 87.2264 19.54 86.6131 19.9C85.9997 20.26 85.5131 20.76 85.1531 21.4C84.8064 22.0267 84.6331 22.74 84.6331 23.54C84.6331 24.34 84.8064 25.0533 85.1531 25.68C85.5131 26.3067 85.9997 26.8 86.6131 27.16C87.2264 27.52 87.9197 27.7 88.6931 27.7ZM97.5882 22.26C97.6282 21.4333 97.8415 20.6933 98.2282 20.04C98.6282 19.3867 99.1415 18.8733 99.7682 18.5C100.408 18.1267 101.115 17.94 101.888 17.94C102.502 17.94 102.975 18.0267 103.308 18.2C103.642 18.3733 103.768 18.6267 103.688 18.96C103.635 19.16 103.542 19.2933 103.408 19.36C103.288 19.4267 103.135 19.4533 102.948 19.44C102.775 19.4267 102.575 19.4133 102.348 19.4C101.602 19.3333 100.935 19.4133 100.348 19.64C99.7749 19.8533 99.3149 20.1867 98.9682 20.64C98.6349 21.0933 98.4682 21.6333 98.4682 22.26H97.5882ZM97.7082 29C97.4682 29 97.2815 28.9333 97.1482 28.8C97.0149 28.6667 96.9482 28.48 96.9482 28.24V18.82C96.9482 18.58 97.0149 18.3933 97.1482 18.26C97.2815 18.1267 97.4682 18.06 97.7082 18.06C97.9482 18.06 98.1349 18.1267 98.2682 18.26C98.4015 18.3933 98.4682 18.58 98.4682 18.82V28.24C98.4682 28.48 98.4015 28.6667 98.2682 28.8C98.1349 28.9333 97.9482 29 97.7082 29ZM109.828 29.1C108.801 29.1 107.881 28.86 107.068 28.38C106.254 27.8867 105.608 27.22 105.128 26.38C104.661 25.54 104.428 24.5933 104.428 23.54C104.428 22.4733 104.668 21.52 105.148 20.68C105.641 19.84 106.308 19.18 107.148 18.7C107.988 18.2067 108.934 17.96 109.988 17.96C111.041 17.96 111.981 18.2067 112.808 18.7C113.648 19.18 114.308 19.84 114.788 20.68C115.281 21.52 115.534 22.4733 115.548 23.54L114.928 24.02C114.928 24.98 114.701 25.8467 114.248 26.62C113.808 27.38 113.201 27.9867 112.428 28.44C111.668 28.88 110.801 29.1 109.828 29.1ZM109.988 27.7C110.761 27.7 111.448 27.52 112.048 27.16C112.661 26.8 113.141 26.3067 113.488 25.68C113.848 25.04 114.028 24.3267 114.028 23.54C114.028 22.74 113.848 22.0267 113.488 21.4C113.141 20.7733 112.661 20.28 112.048 19.92C111.448 19.5467 110.761 19.36 109.988 19.36C109.228 19.36 108.541 19.5467 107.928 19.92C107.314 20.28 106.828 20.7733 106.468 21.4C106.108 22.0267 105.928 22.74 105.928 23.54C105.928 24.3267 106.108 25.04 106.468 25.68C106.828 26.3067 107.314 26.8 107.928 27.16C108.541 27.52 109.228 27.7 109.988 27.7ZM114.768 29C114.541 29 114.354 28.9333 114.208 28.8C114.061 28.6533 113.988 28.4667 113.988 28.24V24.82L114.368 23.24L115.548 23.54V28.24C115.548 28.4667 115.474 28.6533 115.328 28.8C115.181 28.9333 114.994 29 114.768 29ZM120.603 29C120.069 29 119.589 28.8533 119.163 28.56C118.749 28.2667 118.423 27.86 118.183 27.34C117.956 26.82 117.843 26.22 117.843 25.54V14.14C117.843 13.9133 117.909 13.7333 118.043 13.6C118.189 13.4533 118.376 13.38 118.603 13.38C118.829 13.38 119.009 13.4533 119.143 13.6C119.289 13.7333 119.363 13.9133 119.363 14.14V25.54C119.363 26.1133 119.476 26.58 119.703 26.94C119.943 27.3 120.243 27.48 120.603 27.48H121.103C121.303 27.48 121.463 27.5533 121.583 27.7C121.703 27.8333 121.763 28.0133 121.763 28.24C121.763 28.4667 121.676 28.6533 121.503 28.8C121.343 28.9333 121.129 29 120.863 29H120.603ZM128.487 29C128.18 29 127.96 28.8733 127.827 28.62C127.693 28.3667 127.68 28.12 127.787 27.88L133.667 13.92C133.813 13.56 134.067 13.38 134.427 13.38C134.773 13.38 135.02 13.56 135.167 13.92L141.067 27.9C141.187 28.1533 141.167 28.4 141.007 28.64C140.86 28.88 140.647 29 140.367 29C140.207 29 140.06 28.96 139.927 28.88C139.807 28.8 139.707 28.68 139.627 28.52L134.127 15.18H134.747L129.207 28.52C129.14 28.68 129.04 28.8 128.907 28.88C128.787 28.96 128.647 29 128.487 29ZM129.807 25.28L130.407 23.94H138.527L139.127 25.28H129.807ZM143.549 22.26C143.589 21.4333 143.802 20.6933 144.189 20.04C144.589 19.3867 145.102 18.8733 145.729 18.5C146.369 18.1267 147.076 17.94 147.849 17.94C148.462 17.94 148.936 18.0267 149.269 18.2C149.602 18.3733 149.729 18.6267 149.649 18.96C149.596 19.16 149.502 19.2933 149.369 19.36C149.249 19.4267 149.096 19.4533 148.909 19.44C148.736 19.4267 148.536 19.4133 148.309 19.4C147.562 19.3333 146.896 19.4133 146.309 19.64C145.736 19.8533 145.276 20.1867 144.929 20.64C144.596 21.0933 144.429 21.6333 144.429 22.26H143.549ZM143.669 29C143.429 29 143.242 28.9333 143.109 28.8C142.976 28.6667 142.909 28.48 142.909 28.24V18.82C142.909 18.58 142.976 18.3933 143.109 18.26C143.242 18.1267 143.429 18.06 143.669 18.06C143.909 18.06 144.096 18.1267 144.229 18.26C144.362 18.3933 144.429 18.58 144.429 18.82V28.24C144.429 28.48 144.362 28.6667 144.229 28.8C144.096 28.9333 143.909 29 143.669 29ZM156.049 29C155.343 29 154.709 28.8333 154.149 28.5C153.603 28.1667 153.169 27.7133 152.849 27.14C152.529 26.5533 152.369 25.8867 152.369 25.14V15.36C152.369 15.1333 152.436 14.9467 152.569 14.8C152.716 14.6533 152.903 14.58 153.129 14.58C153.356 14.58 153.543 14.6533 153.689 14.8C153.836 14.9467 153.909 15.1333 153.909 15.36V25.14C153.909 25.82 154.109 26.38 154.509 26.82C154.909 27.2467 155.423 27.46 156.049 27.46H156.589C156.803 27.46 156.976 27.5333 157.109 27.68C157.243 27.8267 157.309 28.0133 157.309 28.24C157.309 28.4667 157.229 28.6533 157.069 28.8C156.909 28.9333 156.709 29 156.469 29H156.049ZM151.069 19.8C150.869 19.8 150.703 19.74 150.569 19.62C150.436 19.4867 150.369 19.3267 150.369 19.14C150.369 18.94 150.436 18.78 150.569 18.66C150.703 18.5267 150.869 18.46 151.069 18.46H156.169C156.369 18.46 156.536 18.5267 156.669 18.66C156.803 18.78 156.869 18.94 156.869 19.14C156.869 19.3267 156.803 19.4867 156.669 19.62C156.536 19.74 156.369 19.8 156.169 19.8H151.069Z" fill="#D87878"/>
<path fill-rule="evenodd" clip-rule="evenodd" d="M22.5868 4.16666H0L9.51025 13.5494H32.0971L22.5868 4.16666ZM9.51023 13.5494V35.8333L-1.23978e-05 26.4506V4.16666L9.51023 13.5494Z" fill="#CCCCCC"/>
<path fill-rule="evenodd" clip-rule="evenodd" d="M9.50984 35.8333H32.0967L22.5864 26.4506L-0.000404358 26.4506L9.50984 35.8333ZM22.5865 26.4506L22.5865 4.16666L32.0967 13.5494V35.8333L22.5865 26.4506Z" fill="#E47373"/>
</svg>
